<svg version="1.1" id="Layer_1" xmlns="http://www.w3.org/2000/svg" xmlns:xlink="http://www.w3.org/1999/xlink" x="0px" y="0px"
	 width="100%" viewBox="0 0 1024 1024" enable-background="new 0 0 1024 1024" xml:space="preserve">
<path fill="#1F2020" opacity="1.000000" stroke="none" 
	d="
M645.000000,1025.000000 
	C430.000000,1025.000000 215.500000,1025.000000 1.000000,1025.000000 
	C1.000000,683.666687 1.000000,342.333344 1.000000,1.000000 
	C342.333344,1.000000 683.666687,1.000000 1025.000000,1.000000 
	C1025.000000,342.333344 1025.000000,683.666687 1025.000000,1025.000000 
	C898.500000,1025.000000 772.000000,1025.000000 645.000000,1025.000000 
M643.500000,205.858307 
	C617.334595,205.857300 591.169128,205.856186 565.003723,205.855301 
	C460.011292,205.851746 355.018677,205.781860 250.026718,206.005386 
	C243.545044,206.019180 236.519501,207.149597 230.693939,209.823502 
	C214.369537,217.316345 205.991470,230.729370 205.966232,248.774002 
	C205.854355,328.768066 205.878983,408.762329 205.875534,488.756531 
	C205.871414,584.249695 205.917358,679.742798 205.856522,775.235962 
	C205.849915,785.603210 208.269043,795.092651 214.799637,803.207886 
	C223.910553,814.529602 235.655045,820.176697 250.435532,820.154846 
	C341.428833,820.020264 432.422394,820.085876 523.415894,820.085205 
	C607.409912,820.084534 691.403870,820.067322 775.397888,820.110046 
	C783.720398,820.114258 791.644348,818.920410 798.836060,814.389343 
	C813.468811,805.170105 820.280518,792.085815 820.248840,774.664124 
	C820.069946,676.338379 820.186035,578.012024 820.189270,479.685883 
	C820.191711,404.024719 820.286621,328.363159 819.995178,252.703110 
	C819.966370,245.234802 818.911743,237.158127 815.923462,230.434937 
	C808.623596,214.011337 795.149414,205.858002 776.990479,205.859772 
	C732.826965,205.864090 688.663513,205.860825 643.500000,205.858307 
z"/>
<path fill="#0964B7" opacity="1.000000" stroke="none" 
	d="
M644.000000,205.859467 
	C688.663513,205.860825 732.826965,205.864090 776.990479,205.859772 
	C795.149414,205.858002 808.623596,214.011337 815.923462,230.434937 
	C818.911743,237.158127 819.966370,245.234802 819.995178,252.703110 
	C820.286621,328.363159 820.191711,404.024719 820.189270,479.685883 
	C820.186035,578.012024 820.069946,676.338379 820.248840,774.664124 
	C820.280518,792.085815 813.468811,805.170105 798.836060,814.389343 
	C791.644348,818.920410 783.720398,820.114258 775.397888,820.110046 
	C691.403870,820.067322 607.409912,820.084534 523.415894,820.085205 
	C432.422394,820.085876 341.428833,820.020264 250.435532,820.154846 
	C235.655045,820.176697 223.910553,814.529602 214.799637,803.207886 
	C208.269043,795.092651 205.849915,785.603210 205.856522,775.235962 
	C205.917358,679.742798 205.871414,584.249695 205.875534,488.756531 
	C205.878983,408.762329 205.854355,328.768066 205.966232,248.774002 
	C205.991470,230.729370 214.369537,217.316345 230.693939,209.823502 
	C236.519501,207.149597 243.545044,206.019180 250.026718,206.005386 
	C355.018677,205.781860 460.011292,205.851746 565.003723,205.855301 
	C591.169128,205.856186 617.334595,205.857300 644.000000,205.859467 
M529.161011,511.561310 
	C529.358032,511.223938 529.555054,510.886597 529.750488,510.795105 
	C529.750488,510.795105 529.505066,510.781097 530.086853,510.504272 
	C530.368652,509.955505 530.650391,509.406738 530.965576,508.966431 
	C530.965576,508.966431 530.856689,508.998199 531.278564,508.616486 
	C531.442017,508.277008 531.605469,507.937531 531.780029,507.825043 
	C531.780029,507.825043 531.552795,507.825226 532.113708,507.513550 
	C532.380920,506.957123 532.648132,506.400665 532.948792,505.954407 
	C532.948792,505.954407 532.837891,505.985382 533.256897,505.594666 
	C533.411621,505.248169 533.566345,504.901703 533.709290,504.754822 
	C533.709290,504.754822 533.511047,504.728607 534.216187,504.535065 
	C534.774292,503.301880 535.332458,502.068695 535.921509,500.937042 
	C535.921509,500.937042 535.818848,500.964142 536.302673,500.573914 
	C536.513245,500.004425 536.723755,499.434967 536.962952,498.958466 
	C536.962952,498.958466 536.869385,498.985077 537.485779,498.652740 
	C538.023865,498.029144 538.737305,497.487854 539.074158,496.769836 
	C545.845032,482.337982 548.391907,466.909454 547.504272,451.256104 
	C546.918457,440.926971 544.011292,430.703461 541.775391,420.513428 
	C541.258728,418.158661 539.237976,416.133911 537.747681,413.880920 
	C537.747681,413.880920 537.810547,413.713593 537.874512,412.895935 
	C537.081116,411.688599 536.287781,410.481232 535.685364,409.253448 
	C535.685364,409.253448 535.690308,409.445496 535.571716,408.896912 
	C535.355835,408.597290 535.140015,408.297668 534.991333,408.018188 
	C534.991333,408.018188 534.968689,408.084564 534.874512,407.483032 
	C534.515747,407.013489 534.156921,406.543976 533.882080,406.088348 
	C533.882080,406.088348 533.862488,406.171112 533.890320,405.466339 
	C533.217407,404.662659 532.544495,403.858978 531.943787,403.061584 
	C531.943787,403.061584 531.934265,403.133423 531.813721,402.508484 
	C531.378479,402.072662 530.943237,401.636841 530.744934,401.211151 
	C530.744934,401.211151 530.721985,401.447174 530.608032,400.808258 
	C530.033264,400.210114 529.458435,399.612000 528.964233,399.028229 
	C528.964233,399.028229 528.948120,399.108459 528.956848,398.363831 
	C527.560974,396.958893 526.165100,395.553955 524.904480,394.133911 
	C524.904480,394.133911 524.913269,394.269714 524.630737,393.774811 
	C524.335632,393.540253 524.040527,393.305695 523.928894,393.070465 
	C523.928894,393.070465 523.925659,393.253876 523.646240,392.763397 
	C523.356323,392.527985 523.066345,392.292603 522.944092,392.056335 
	C522.944092,392.056335 522.941772,392.223938 522.651855,391.744354 
	C522.358826,391.516876 522.065735,391.289429 521.939026,391.058929 
	C521.939026,391.058929 521.938782,391.225311 521.648743,390.746582 
	C521.355591,390.520111 521.062378,390.293671 520.892334,390.078156 
	C520.892334,390.078156 520.876160,390.200684 520.822510,389.472687 
	C519.390564,388.476166 517.958618,387.479645 516.645081,386.435974 
	C516.645081,386.435974 516.671692,386.560608 516.451477,385.965637 
	C515.929199,385.659088 515.406982,385.352539 514.974304,385.032227 
	C514.974304,385.032227 514.986450,385.122070 514.690308,384.547577 
	C513.970703,384.134796 513.251099,383.722046 512.765076,383.286224 
	C512.765076,383.286224 512.773804,383.520813 512.490356,382.943878 
	C511.943817,382.660736 511.397247,382.377625 510.941284,382.076080 
	C510.941284,382.076080 510.956055,382.167328 510.588257,381.733948 
	C510.249695,381.568329 509.911133,381.402740 509.792877,381.240662 
	C509.792877,381.240662 509.777130,381.460419 509.558319,380.773071 
	C508.348145,380.190918 507.137970,379.608734 505.988892,379.000946 
	C505.988892,379.000946 506.004456,379.065369 505.613831,378.672821 
	C505.274689,378.531677 504.935547,378.390533 504.782867,378.249237 
	C504.782867,378.249237 504.770233,378.435272 504.562408,377.739868 
	C501.665527,376.522614 498.768646,375.305359 495.935120,374.056946 
	C495.935120,374.056946 495.951508,374.125641 495.564514,373.457672 
	C494.127319,373.051910 492.690155,372.646149 491.098816,372.305817 
	C491.098816,372.305817 491.018707,372.158783 490.668579,371.523346 
	C486.681305,370.442963 482.694000,369.362610 478.838806,368.253632 
	C478.838806,368.253632 478.855896,368.387695 478.449585,367.733673 
	C477.601379,367.244049 476.793732,366.425842 475.898804,366.315399 
	C466.362335,365.139069 456.819916,363.217804 447.264130,363.129639 
	C407.833527,362.765930 368.397644,362.951904 328.963837,363.008514 
	C327.069336,363.011261 325.175781,363.705017 323.219971,364.217896 
	C323.219971,364.217896 323.074921,364.166504 322.365021,364.426056 
	C321.908478,366.596222 321.058167,368.765594 321.053711,370.936707 
	C320.971802,410.754059 320.989685,450.571564 320.989594,490.389069 
	C320.989441,545.367188 320.968658,600.345337 321.077972,655.323242 
	C321.082367,657.530334 322.329834,659.734985 323.065552,661.875061 
	C323.065552,661.875061 323.134583,661.939087 323.527008,662.587280 
	C325.058380,663.031677 326.587646,663.853699 328.121460,663.862305 
	C344.185120,663.952271 360.251282,664.038391 376.312469,663.816040 
	C380.174042,663.762512 384.019745,662.565857 387.914246,661.923767 
	C387.914246,661.923767 387.913910,661.873230 388.643036,661.640198 
	C389.074524,659.617676 389.877319,657.595947 389.882080,655.572449 
	C389.960144,622.270020 389.999084,588.967041 389.862610,555.664978 
	C389.844940,551.350830 391.139557,549.631592 395.571411,549.881348 
	C400.882935,550.180725 406.233002,550.144104 411.550446,549.902344 
	C418.093262,549.604858 424.552368,549.105652 427.776978,556.641785 
	C427.826782,556.758179 428.063019,556.794800 428.118622,556.907532 
	C428.118622,556.907532 428.170227,556.820251 428.219574,557.430420 
	C428.550415,557.925171 428.881256,558.419983 429.130219,558.908081 
	C429.130219,558.908081 429.143066,558.826904 429.233398,559.432129 
	C429.655334,559.828857 430.077271,560.225525 430.053345,560.917664 
	C430.205475,560.824951 430.357574,560.732178 430.429657,561.257080 
	C430.800903,561.699219 431.172119,562.141418 431.003967,562.877136 
	C431.184631,562.783142 431.365326,562.689148 431.408844,563.344849 
	C436.394257,573.362610 441.360596,583.390076 446.410706,593.375122 
	C446.727692,594.001953 447.700073,594.297241 448.206421,594.846191 
	C448.206421,594.846191 448.332306,594.704773 448.317749,595.335205 
	C448.707886,595.786255 449.098053,596.237244 449.227295,596.825928 
	C449.227295,596.825928 449.462982,596.648560 449.391876,597.273987 
	C449.766266,597.721741 450.140656,598.169495 450.071686,598.874146 
	C450.223175,598.795532 450.374664,598.716919 450.439758,599.257019 
	C450.806732,599.704712 451.173706,600.152405 451.226685,601.001709 
	C451.324066,600.862671 451.421478,600.723633 451.527313,601.112000 
	C451.727966,601.390808 451.928619,601.669678 452.058411,601.938843 
	C452.058411,601.938843 452.094666,601.877258 452.027679,602.661499 
	C455.281464,609.304565 458.425049,616.005249 461.850189,622.558777 
	C463.013611,624.784851 464.887024,626.639954 466.016113,629.005310 
	C466.154694,628.890808 466.293304,628.776306 466.283356,629.364258 
	C466.878357,630.235535 467.473358,631.106873 468.004852,631.976379 
	C468.004852,631.976379 468.039490,631.923096 468.072083,632.530029 
	C468.414856,633.013794 468.757629,633.497498 469.034210,633.962097 
	C469.034210,633.962097 469.065338,633.900635 469.028992,634.663452 
	C471.401184,638.745789 473.773407,642.828064 476.060699,646.921387 
	C476.060699,646.921387 476.114899,646.855103 476.049438,647.636353 
	C478.158936,651.331543 480.268433,655.026672 482.110535,658.946472 
	C482.110535,658.946472 482.357025,658.699097 482.340027,659.316589 
	C482.732574,659.742615 483.125092,660.168640 483.434052,660.617004 
	C483.434052,660.617004 483.446014,660.531311 483.583221,661.266663 
	C486.461548,662.153137 489.331116,663.772766 492.219604,663.807312 
	C511.201385,664.033936 530.187256,663.920166 549.171753,663.912476 
	C550.836548,663.911804 552.515320,664.005859 554.163208,663.828613 
	C557.475769,663.472107 558.670715,661.203552 557.288147,658.548462 
	C555.895020,655.873169 553.521912,653.708069 551.694397,651.249817 
	C551.694397,651.249817 551.629150,651.368469 551.566101,650.836243 
	C551.350525,650.558350 551.134949,650.280457 550.984314,650.019592 
	C550.984314,650.019592 550.955200,650.080078 550.989685,649.340881 
	C549.871887,647.646118 548.754089,645.951294 547.716614,644.247498 
	C547.716614,644.247498 547.699890,644.326599 547.615234,643.804199 
	C547.395386,643.534729 547.175537,643.265320 547.011780,643.004028 
	C547.011780,643.004028 546.982788,643.052734 546.941833,642.445801 
	C546.582397,641.976257 546.223022,641.506653 545.933472,641.057129 
	C545.933472,641.057129 545.910217,641.125977 545.969849,640.347046 
	C545.117920,638.221130 544.551025,635.917664 543.358643,634.003845 
	C540.248230,629.011292 536.863831,624.189514 533.673767,619.277466 
	C533.673767,619.277466 533.652161,619.362610 533.580872,618.830750 
	C533.362427,618.554382 533.143982,618.278076 532.989746,618.016602 
	C532.989746,618.016602 532.960999,618.075867 532.989929,617.324829 
	C531.640991,615.220703 530.292053,613.116577 529.002686,611.013672 
	C529.002686,611.013672 528.971558,611.064575 528.989746,610.307007 
	C525.956726,605.223450 522.923645,600.139954 519.965210,595.052246 
	C519.965210,595.052246 519.920776,595.112305 519.975891,594.340576 
	C518.502686,592.009583 517.029541,589.678589 515.728943,587.184937 
	C515.728943,587.184937 515.596985,587.382019 515.549927,586.848328 
	C515.339233,586.567322 515.128601,586.286377 514.983582,586.021973 
	C514.983582,586.021973 514.956238,586.083923 514.919678,585.475647 
	C514.559631,585.007690 514.199585,584.539734 513.913269,584.074402 
	C513.913269,584.074402 513.882385,584.141357 513.926758,583.403503 
	C512.923218,581.945068 511.919617,580.486694 510.982544,579.028442 
	C510.982544,579.028442 510.950226,579.086609 510.976227,578.326965 
	C507.943390,573.239441 504.910522,568.151978 501.952332,563.060486 
	C501.952332,563.060486 501.912659,563.123901 501.945862,562.366272 
	C500.485962,560.018799 499.026031,557.671265 497.654053,555.289673 
	C497.654053,555.289673 497.630463,555.380981 497.555664,554.846069 
	C497.333557,554.569763 497.111450,554.293518 496.957214,554.039917 
	C496.957214,554.039917 496.931671,554.106750 496.966370,553.363098 
	C495.829224,551.700317 494.692047,550.037476 493.853668,547.979431 
	C493.853668,547.979431 493.571014,548.384460 493.514160,547.856506 
	C493.300140,547.581848 493.086121,547.307251 492.940643,547.055298 
	C492.940643,547.055298 492.915131,547.122803 492.942322,546.334106 
	C490.941864,541.376648 493.443695,539.645325 497.813812,537.737488 
	C502.579407,535.656982 506.646271,531.976013 511.011658,529.017578 
	C511.011658,529.017578 510.986359,529.013794 511.668274,529.000793 
	C512.435669,528.306519 513.203003,527.612244 513.977539,526.983459 
	C513.977539,526.983459 513.915771,526.960510 514.514160,526.855774 
	C514.866821,526.403015 515.219421,525.950256 516.014099,525.900024 
	C515.867737,525.762939 515.721313,525.625854 516.287476,525.596313 
	C521.417908,522.492493 526.296997,519.161133 527.912537,512.908813 
	C527.912537,512.908813 527.821899,512.966858 528.276489,512.635010 
	C528.473389,512.318420 528.670288,512.001892 528.882202,511.891266 
	C528.882202,511.891266 528.675964,511.900024 529.161011,511.561310 
M566.073975,491.918030 
	C566.051453,504.541718 565.977112,517.165771 566.068481,529.788635 
	C566.080688,531.477661 566.931152,533.160645 567.774048,535.089905 
	C567.944702,535.340698 568.078064,535.609924 568.765259,536.409180 
	C573.523926,536.916199 578.284119,537.860901 583.040955,537.844421 
	C595.146973,537.802429 607.250122,537.245178 619.357056,537.067810 
	C625.254944,536.981323 626.007324,537.842407 626.019714,543.641846 
	C626.052429,558.929199 625.938477,574.217773 626.122620,589.502991 
	C626.152222,591.958618 627.414734,594.399475 629.023071,596.980225 
	C644.280945,596.892761 659.538818,596.805359 675.336548,596.159363 
	C675.558472,594.206116 675.965576,592.253479 675.972900,590.299438 
	C676.030579,575.014465 676.000549,559.729248 676.020996,544.444092 
	C676.030884,537.073059 676.053833,537.053406 683.637695,537.042725 
	C698.756714,537.021362 713.875977,537.063904 728.994446,536.965881 
	C730.880981,536.953674 732.763062,536.249268 734.862183,534.966675 
	C734.819336,520.011658 734.776428,505.056671 734.155273,489.583588 
	C732.193787,489.379486 730.232971,489.005859 728.270691,488.998291 
	C713.799072,488.942810 699.326965,489.007904 684.855469,488.936646 
	C676.569580,488.895844 676.023804,488.294556 676.014099,480.257019 
	C675.995728,465.119843 676.045471,449.982361 675.941772,434.845886 
	C675.928955,432.968903 675.153931,431.097168 673.846558,429.025024 
	C658.584351,429.056732 643.322205,429.088470 627.537903,429.650696 
	C627.034241,432.391327 626.121826,435.127960 626.094971,437.873260 
	C625.950073,452.684753 625.827942,467.502472 626.138184,482.308838 
	C626.237305,487.037231 624.140320,488.808563 620.109985,488.800659 
	C609.144470,488.779144 598.176331,488.269257 587.215515,488.418121 
	C580.848022,488.504608 574.492798,489.487122 568.012695,490.320465 
	C568.012695,490.320465 567.732056,490.322205 567.151123,490.415405 
	C566.807312,490.603333 566.463562,490.791229 566.073975,491.918030 
z"/>
<path fill="#FDFEFF" opacity="1.000000" stroke="none" 
	d="
M537.810547,413.713593 
	C537.810547,413.713593 537.747681,413.880920 537.858582,414.302277 
	C543.509216,427.743195 545.900024,441.348206 545.994141,455.473816 
	C546.095459,470.672882 542.752869,485.077576 536.869385,498.985077 
	C536.869385,498.985077 536.962952,498.958466 536.690491,499.088501 
	C536.218323,499.800415 536.018555,500.382263 535.818848,500.964142 
	C535.818848,500.964142 535.921509,500.937042 535.633911,501.073975 
	C534.734558,502.383484 534.122803,503.556061 533.511047,504.728607 
	C533.511047,504.728607 533.709290,504.754822 533.459717,504.812897 
	C533.086060,505.242432 532.961975,505.613892 532.837891,505.985382 
	C532.837891,505.985382 532.948792,505.954407 532.661011,506.053894 
	C532.099731,506.710663 531.826233,507.267944 531.552795,507.825226 
	C531.552795,507.825226 531.780029,507.825043 531.513977,507.859253 
	C531.117493,508.261688 530.987061,508.629944 530.856689,508.998199 
	C530.856689,508.998199 530.965576,508.966431 530.676392,509.059662 
	C530.093140,509.695618 529.799133,510.238373 529.505066,510.781128 
	C529.505066,510.781097 529.750488,510.795105 529.475586,510.807129 
	C529.025818,511.179413 528.850891,511.539734 528.675964,511.900024 
	C528.675964,511.900024 528.882202,511.891266 528.601929,511.906860 
	C528.155029,512.270569 527.988464,512.618713 527.821899,512.966858 
	C527.821899,512.966858 527.912537,512.908813 527.585938,513.022461 
	C523.364441,517.253662 519.469666,521.371216 515.574829,525.488770 
	C515.721313,525.625854 515.867737,525.762939 515.526367,525.808228 
	C514.664307,526.131104 514.290039,526.545837 513.915771,526.960510 
	C513.915771,526.960510 513.977539,526.983459 513.665649,527.013428 
	C512.564636,527.700195 511.775513,528.356995 510.986359,529.013794 
	C510.986359,529.013794 511.011658,529.017578 510.674561,529.089966 
	C503.304932,532.933472 496.272430,536.704651 488.938873,540.637268 
	C490.216522,542.721191 491.565826,544.921997 492.915131,547.122803 
	C492.915131,547.122803 492.940643,547.055298 492.921417,547.315735 
	C493.125122,547.845581 493.348083,548.115051 493.571014,548.384460 
	C493.571014,548.384460 493.853668,547.979431 493.783997,548.508057 
	C494.786804,550.726746 495.859253,552.416748 496.931671,554.106750 
	C496.931671,554.106750 496.957214,554.039917 496.941132,554.306763 
	C497.160187,554.842712 497.395325,555.111877 497.630463,555.380981 
	C497.630463,555.380981 497.654053,555.289673 497.693878,555.651428 
	C499.126709,558.383423 500.519684,560.753662 501.912659,563.123901 
	C501.912659,563.123901 501.952332,563.060486 501.957855,563.420654 
	C504.958984,568.882812 507.954590,573.984680 510.950226,579.086609 
	C510.950226,579.086609 510.982544,579.028442 510.987671,579.366272 
	C511.955963,581.183167 512.919189,582.662292 513.882385,584.141357 
	C513.882385,584.141357 513.913269,584.074402 513.905029,584.375732 
	C514.250000,585.145996 514.603088,585.614990 514.956238,586.083923 
	C514.956238,586.083923 514.983582,586.021973 514.959900,586.288208 
	C515.156494,586.830261 515.376709,587.106140 515.596985,587.382019 
	C515.596985,587.382019 515.728943,587.184937 515.726318,587.609131 
	C517.122742,590.392944 518.521790,592.752625 519.920776,595.112305 
	C519.920776,595.112305 519.965210,595.052246 519.966858,595.413147 
	C522.969543,600.870911 525.970520,605.967712 528.971558,611.064575 
	C528.971558,611.064575 529.002686,611.013672 529.018555,611.360962 
	C530.343262,613.830750 531.652161,615.953308 532.960999,618.075867 
	C532.960999,618.075867 532.989746,618.016602 532.971558,618.286255 
	C533.186279,618.824768 533.419189,619.093689 533.652161,619.362610 
	C533.652161,619.362610 533.673767,619.277466 533.712585,619.640503 
	C537.804321,627.044373 541.857239,634.085205 545.910217,641.125977 
	C545.910217,641.125977 545.933472,641.057129 545.922119,641.350647 
	C546.268127,642.113647 546.625488,642.583191 546.982788,643.052734 
	C546.982788,643.052734 547.011780,643.004028 546.995972,643.275818 
	C547.220093,643.807312 547.459961,644.066956 547.699890,644.326599 
	C547.699890,644.326599 547.716614,644.247498 547.743713,644.590088 
	C548.832275,646.648438 549.893738,648.364258 550.955200,650.080078 
	C550.955200,650.080078 550.984314,650.019592 550.962646,650.287781 
	C551.170410,650.826782 551.399780,651.097656 551.629150,651.368469 
	C551.629150,651.368469 551.694397,651.249817 551.717285,651.637329 
	C553.339111,655.026001 554.937988,658.027222 556.806152,661.533875 
	C555.522339,661.663696 554.913330,661.778320 554.304260,661.779297 
	C532.040405,661.816101 509.776459,661.865845 487.512817,661.812500 
	C486.156189,661.809204 484.801575,660.977539 483.446014,660.531311 
	C483.446014,660.531311 483.434052,660.617004 483.398376,660.327881 
	C483.027496,659.592224 482.692261,659.145630 482.357025,658.699097 
	C482.357025,658.699097 482.110535,658.946472 482.178528,658.477295 
	C480.202667,654.290466 478.158783,650.572754 476.114899,646.855103 
	C476.114899,646.855103 476.060699,646.921387 476.060577,646.557739 
	C473.728760,642.096313 471.397064,637.998474 469.065338,633.900635 
	C469.065338,633.900635 469.034210,633.962097 469.054993,633.665527 
	C468.730347,632.886963 468.384918,632.405029 468.039490,631.923096 
	C468.039490,631.923096 468.004852,631.976379 468.021851,631.659668 
	C467.503204,630.449219 466.967560,629.555481 466.431885,628.661804 
	C466.293304,628.776306 466.154694,628.890808 466.144531,628.482300 
	C461.546844,619.265320 456.820740,610.571289 452.094666,601.877258 
	C452.094666,601.877258 452.058411,601.938843 452.089447,601.679138 
	C451.919952,601.141174 451.719391,600.862854 451.518860,600.584595 
	C451.421478,600.723633 451.324066,600.862671 451.325745,600.521851 
	C451.125244,599.574097 450.825714,599.106201 450.526154,598.638306 
	C450.374664,598.716919 450.223175,598.795532 450.234436,598.463745 
	C450.085815,597.585022 449.774384,597.116821 449.462982,596.648560 
	C449.462982,596.648560 449.227295,596.825928 449.295990,596.463013 
	C449.020569,595.635010 448.676422,595.169922 448.332306,594.704773 
	C448.332306,594.704773 448.206421,594.846191 448.216736,594.438110 
	C442.666718,583.551758 437.106384,573.073425 431.546051,562.595093 
	C431.365326,562.689148 431.184631,562.783142 431.212280,562.453003 
	C431.117004,561.565796 430.813354,561.102600 430.509705,560.639465 
	C430.357574,560.732178 430.205475,560.824951 430.208130,560.477539 
	C429.956299,559.633911 429.549683,559.230408 429.143066,558.826904 
	C429.143066,558.826904 429.130219,558.908081 429.145630,558.592163 
	C428.830780,557.790955 428.500488,557.305603 428.170227,556.820251 
	C428.170227,556.820251 428.118622,556.907532 428.145264,556.516174 
	C426.343964,553.615417 424.641144,549.055420 422.667358,548.934937 
	C411.292419,548.240723 399.853363,548.596558 388.116638,548.596558 
	C388.116638,550.598267 388.115967,551.911377 388.116760,553.224487 
	C388.128967,573.328979 388.175598,593.433594 388.142792,613.538025 
	C388.116516,629.649841 387.993805,645.761475 387.913910,661.873230 
	C387.913910,661.873230 387.914246,661.923767 387.438782,661.884155 
	C365.687103,661.876038 344.410828,661.907532 323.134583,661.939087 
	C323.134583,661.939087 323.065552,661.875061 322.955627,661.451538 
	C322.811707,659.696228 322.748016,658.364441 322.747864,657.032593 
	C322.736511,561.066833 322.728485,465.101044 322.738159,369.135254 
	C322.738342,367.479004 322.957794,365.822754 323.074921,364.166504 
	C323.074921,364.166504 323.219971,364.217896 323.682800,364.196350 
	C356.546967,364.184875 388.948761,364.305939 421.349396,364.163361 
	C440.643341,364.078461 459.884338,364.281982 478.855896,368.387695 
	C478.855896,368.387695 478.838806,368.253632 479.052734,368.507294 
	C483.184021,369.893585 487.101379,371.026184 491.018707,372.158783 
	C491.018707,372.158783 491.098816,372.305817 491.440552,372.533997 
	C493.171997,373.216675 494.561768,373.671173 495.951508,374.125641 
	C495.951508,374.125641 495.935120,374.056946 496.137573,374.330505 
	C499.150085,375.881134 501.960144,377.158203 504.770233,378.435272 
	C504.770233,378.435272 504.782867,378.249237 504.845337,378.496704 
	C505.273376,378.851227 505.638916,378.958282 506.004456,379.065369 
	C506.004456,379.065369 505.988892,379.000946 506.144592,379.285583 
	C507.459259,380.200256 508.618195,380.830322 509.777130,381.460419 
	C509.777130,381.460419 509.792877,381.240662 509.827698,381.499817 
	C510.227051,381.895081 510.591553,382.031219 510.956055,382.167328 
	C510.956055,382.167328 510.941284,382.076080 511.036804,382.362000 
	C511.679474,382.938904 512.226624,383.229858 512.773804,383.520813 
	C512.773804,383.520813 512.765076,383.286224 512.813965,383.568268 
	C513.570740,384.274231 514.278625,384.698151 514.986450,385.122070 
	C514.986450,385.122070 514.974304,385.032227 515.052246,385.316956 
	C515.644043,385.921326 516.157837,386.240967 516.671692,386.560608 
	C516.671692,386.560608 516.645081,386.435974 516.766113,386.723328 
	C518.216797,388.074005 519.546509,389.137360 520.876160,390.200684 
	C520.876160,390.200684 520.892334,390.078156 520.931824,390.348358 
	C521.293823,390.820801 521.616272,391.023071 521.938782,391.225311 
	C521.938782,391.225311 521.939026,391.058929 521.957764,391.335754 
	C522.298279,391.816345 522.620056,392.020142 522.941772,392.223938 
	C522.941772,392.223938 522.944092,392.056335 522.956787,392.336700 
	C523.288147,392.829346 523.606934,393.041626 523.925659,393.253876 
	C523.925659,393.253876 523.928894,393.070465 523.936157,393.351685 
	C524.266663,393.845184 524.589966,394.057465 524.913269,394.269714 
	C524.913269,394.269714 524.904480,394.133911 524.946655,394.452515 
	C526.308594,396.216919 527.628357,397.662689 528.948120,399.108459 
	C528.948120,399.108459 528.964233,399.028229 529.001221,399.325623 
	C529.599426,400.231079 530.160706,400.839111 530.721985,401.447174 
	C530.721985,401.447174 530.744934,401.211151 530.717957,401.509094 
	C531.105408,402.249146 531.519836,402.691284 531.934265,403.133423 
	C531.934265,403.133423 531.943787,403.061584 531.967651,403.371277 
	C532.615173,404.511047 533.238831,405.341064 533.862488,406.171112 
	C533.862488,406.171112 533.882080,406.088348 533.887573,406.382294 
	C534.251648,407.145691 534.610168,407.615143 534.968689,408.084564 
	C534.968689,408.084564 534.991333,408.018188 534.981445,408.298431 
	C535.211182,408.867615 535.450745,409.156555 535.690308,409.445496 
	C535.690308,409.445496 535.685364,409.253448 535.691528,409.611694 
	C536.402039,411.217804 537.106262,412.465698 537.810547,413.713593 
M388.255707,452.499878 
	C388.255707,465.961151 388.255707,479.422455 388.255707,492.682526 
	C388.923157,493.040588 389.212952,493.332977 389.500275,493.330597 
	C408.818359,493.168854 428.165039,493.558441 447.443634,492.591431 
	C459.650116,491.979126 469.899811,486.122223 475.922668,474.916351 
	C489.349304,449.935181 474.110718,421.607086 445.924133,420.015045 
	C427.484955,418.973602 408.955078,419.532196 390.465637,419.406097 
	C389.851349,419.401947 389.234711,419.746521 388.257111,420.035614 
	C388.257111,430.566406 388.257111,441.033112 388.255707,452.499878 
z"/>
<path fill="#FAFDFE" opacity="1.000000" stroke="none" 
	d="
M734.733521,490.101654 
	C734.776428,505.056671 734.819336,520.011658 734.325928,535.363892 
	C714.201965,535.761047 694.614258,535.761047 674.796692,535.761047 
	C674.796692,556.496094 674.796692,576.606995 674.796692,596.717896 
	C659.538818,596.805359 644.280945,596.892761 628.568298,596.460083 
	C628.113525,575.926819 628.113525,555.913696 628.113525,535.897644 
	C607.655396,535.897644 587.914856,535.897644 568.174255,535.897644 
	C568.078064,535.609924 567.944702,535.340698 567.685120,534.521606 
	C567.533936,519.621094 567.471680,505.288879 567.562134,490.834656 
	C567.714783,490.712677 567.732056,490.322205 567.732056,490.322205 
	C567.732056,490.322205 568.012695,490.320465 568.522034,490.227600 
	C588.571472,490.134735 608.111572,490.134735 628.059998,490.134735 
	C628.059998,469.539886 628.059998,449.330048 628.059998,429.120178 
	C643.322205,429.088470 658.584351,429.056732 674.244141,429.569275 
	C674.641663,449.990051 674.641663,469.866608 674.641663,490.101654 
	C694.979797,490.101654 714.856689,490.101654 734.733521,490.101654 
z"/>
<path fill="#0F5A99" opacity="1.000000" stroke="none" 
	d="
M322.719971,364.296265 
	C322.957794,365.822754 322.738342,367.479004 322.738159,369.135254 
	C322.728485,465.101044 322.736511,561.066833 322.747864,657.032593 
	C322.748016,658.364441 322.811707,659.696228 322.921936,661.484375 
	C322.329834,659.734985 321.082367,657.530334 321.077972,655.323242 
	C320.968658,600.345337 320.989441,545.367188 320.989594,490.389069 
	C320.989685,450.571564 320.971802,410.754059 321.053711,370.936707 
	C321.058167,368.765594 321.908478,366.596222 322.719971,364.296265 
z"/>
<path fill="#3370A2" opacity="1.000000" stroke="none" 
	d="
M388.278473,661.756714 
	C387.993805,645.761475 388.116516,629.649841 388.142792,613.538025 
	C388.175598,593.433594 388.128967,573.328979 388.116760,553.224487 
	C388.115967,551.911377 388.116638,550.598267 388.116638,548.596558 
	C399.853363,548.596558 411.292419,548.240723 422.667358,548.934937 
	C424.641144,549.055420 426.343964,553.615417 428.192078,556.496704 
	C428.063019,556.794800 427.826782,556.758179 427.776978,556.641785 
	C424.552368,549.105652 418.093262,549.604858 411.550446,549.902344 
	C406.233002,550.144104 400.882935,550.180725 395.571411,549.881348 
	C391.139557,549.631592 389.844940,551.350830 389.862610,555.664978 
	C389.999084,588.967041 389.960144,622.270020 389.882080,655.572449 
	C389.877319,657.595947 389.074524,659.617676 388.278473,661.756714 
z"/>
<path fill="#1A5C95" opacity="1.000000" stroke="none" 
	d="
M627.798950,429.385437 
	C628.059998,449.330048 628.059998,469.539886 628.059998,490.134735 
	C608.111572,490.134735 588.571472,490.134735 568.581665,490.100586 
	C574.492798,489.487122 580.848022,488.504608 587.215515,488.418121 
	C598.176331,488.269257 609.144470,488.779144 620.109985,488.800659 
	C624.140320,488.808563 626.237305,487.037231 626.138184,482.308838 
	C625.827942,467.502472 625.950073,452.684753 626.094971,437.873260 
	C626.121826,435.127960 627.034241,432.391327 627.798950,429.385437 
z"/>
<path fill="#195D96" opacity="1.000000" stroke="none" 
	d="
M568.469727,536.153442 
	C587.914856,535.897644 607.655396,535.897644 628.113525,535.897644 
	C628.113525,555.913696 628.113525,575.926819 628.110413,596.393555 
	C627.414734,594.399475 626.152222,591.958618 626.122620,589.502991 
	C625.938477,574.217773 626.052429,558.929199 626.019714,543.641846 
	C626.007324,537.842407 625.254944,536.981323 619.357056,537.067810 
	C607.250122,537.245178 595.146973,537.802429 583.040955,537.844421 
	C578.284119,537.860901 573.523926,536.916199 568.469727,536.153442 
z"/>
<path fill="#1E5E96" opacity="1.000000" stroke="none" 
	d="
M478.652740,368.060669 
	C459.884338,364.281982 440.643341,364.078461 421.349396,364.163361 
	C388.948761,364.305939 356.546967,364.184875 323.713745,364.125854 
	C325.175781,363.705017 327.069336,363.011261 328.963837,363.008514 
	C368.397644,362.951904 407.833527,362.765930 447.264130,363.129639 
	C456.819916,363.217804 466.362335,365.139069 475.898804,366.315399 
	C476.793732,366.425842 477.601379,367.244049 478.652740,368.060669 
z"/>
<path fill="#3370A2" opacity="1.000000" stroke="none" 
	d="
M483.514618,660.898987 
	C484.801575,660.977539 486.156189,661.809204 487.512817,661.812500 
	C509.776459,661.865845 532.040405,661.816101 554.304260,661.779297 
	C554.913330,661.778320 555.522339,661.663696 556.806152,661.533875 
	C554.937988,658.027222 553.339111,655.026001 551.659180,651.672119 
	C553.521912,653.708069 555.895020,655.873169 557.288147,658.548462 
	C558.670715,661.203552 557.475769,663.472107 554.163208,663.828613 
	C552.515320,664.005859 550.836548,663.911804 549.171753,663.912476 
	C530.187256,663.920166 511.201385,664.033936 492.219604,663.807312 
	C489.331116,663.772766 486.461548,662.153137 483.514618,660.898987 
z"/>
<path fill="#1E5E96" opacity="1.000000" stroke="none" 
	d="
M537.177612,498.818909 
	C542.752869,485.077576 546.095459,470.672882 545.994141,455.473816 
	C545.900024,441.348206 543.509216,427.743195 537.939392,414.340454 
	C539.237976,416.133911 541.258728,418.158661 541.775391,420.513428 
	C544.011292,430.703461 546.918457,440.926971 547.504272,451.256104 
	C548.391907,466.909454 545.845032,482.337982 539.074158,496.769836 
	C538.737305,497.487854 538.023865,498.029144 537.177612,498.818909 
z"/>
<path fill="#155792" opacity="1.000000" stroke="none" 
	d="
M734.444458,489.842621 
	C714.856689,490.101654 694.979797,490.101654 674.641663,490.101654 
	C674.641663,469.866608 674.641663,449.990051 674.686890,429.668274 
	C675.153931,431.097168 675.928955,432.968903 675.941772,434.845886 
	C676.045471,449.982361 675.995728,465.119843 676.014099,480.257019 
	C676.023804,488.294556 676.569580,488.895844 684.855469,488.936646 
	C699.326965,489.007904 713.799072,488.942810 728.270691,488.998291 
	C730.232971,489.005859 732.193787,489.379486 734.444458,489.842621 
z"/>
<path fill="#3370A2" opacity="1.000000" stroke="none" 
	d="
M323.330811,662.263184 
	C344.410828,661.907532 365.687103,661.876038 387.418030,661.869751 
	C384.019745,662.565857 380.174042,663.762512 376.312469,663.816040 
	C360.251282,664.038391 344.185120,663.952271 328.121460,663.862305 
	C326.587646,663.853699 325.058380,663.031677 323.330811,662.263184 
z"/>
<path fill="#155792" opacity="1.000000" stroke="none" 
	d="
M675.066650,596.438599 
	C674.796692,576.606995 674.796692,556.496094 674.796692,535.761047 
	C694.614258,535.761047 714.201965,535.761047 734.218445,535.813354 
	C732.763062,536.249268 730.880981,536.953674 728.994446,536.965881 
	C713.875977,537.063904 698.756714,537.021362 683.637695,537.042725 
	C676.053833,537.053406 676.030884,537.073059 676.020996,544.444092 
	C676.000549,559.729248 676.030579,575.014465 675.972900,590.299438 
	C675.965576,592.253479 675.558472,594.206116 675.066650,596.438599 
z"/>
<path fill="#3370A2" opacity="1.000000" stroke="none" 
	d="
M431.477448,562.969971 
	C437.106384,573.073425 442.666718,583.551758 448.297302,594.388428 
	C447.700073,594.297241 446.727692,594.001953 446.410706,593.375122 
	C441.360596,583.390076 436.394257,573.362610 431.477448,562.969971 
z"/>
<path fill="#3370A2" opacity="1.000000" stroke="none" 
	d="
M492.928711,546.728455 
	C491.565826,544.921997 490.216522,542.721191 488.938873,540.637268 
	C496.272430,536.704651 503.304932,532.933472 510.677612,529.077515 
	C506.646271,531.976013 502.579407,535.656982 497.813812,537.737488 
	C493.443695,539.645325 490.941864,541.376648 492.928711,546.728455 
z"/>
<path fill="#3370A2" opacity="1.000000" stroke="none" 
	d="
M452.061157,602.269409 
	C456.820740,610.571289 461.546844,619.265320 466.354492,628.311951 
	C464.887024,626.639954 463.013611,624.784851 461.850189,622.558777 
	C458.425049,616.005249 455.281464,609.304565 452.061157,602.269409 
z"/>
<path fill="#3370A2" opacity="1.000000" stroke="none" 
	d="
M545.940063,640.736511 
	C541.857239,634.085205 537.804321,627.044373 533.670044,619.651611 
	C536.863831,624.189514 540.248230,629.011292 543.358643,634.003845 
	C544.551025,635.917664 545.117920,638.221130 545.940063,640.736511 
z"/>
<path fill="#145B98" opacity="1.000000" stroke="none" 
	d="
M567.409424,490.956665 
	C567.471680,505.288879 567.533936,519.621094 567.494873,534.399902 
	C566.931152,533.160645 566.080688,531.477661 566.068481,529.788635 
	C565.977112,517.165771 566.051453,504.541718 566.418701,491.445923 
	C566.978760,490.968140 567.194092,490.962402 567.409424,490.956665 
z"/>
<path fill="#3370A2" opacity="1.000000" stroke="none" 
	d="
M515.931152,525.542603 
	C519.469666,521.371216 523.364441,517.253662 527.555237,512.978271 
	C526.296997,519.161133 521.417908,522.492493 515.931152,525.542603 
z"/>
<path fill="#3370A2" opacity="1.000000" stroke="none" 
	d="
M528.980652,610.685791 
	C525.970520,605.967712 522.969543,600.870911 519.929565,595.415222 
	C522.923645,600.139954 525.956726,605.223450 528.980652,610.685791 
z"/>
<path fill="#3370A2" opacity="1.000000" stroke="none" 
	d="
M510.963226,578.706787 
	C507.954590,573.984680 504.958984,568.882812 501.920532,563.422668 
	C504.910522,568.151978 507.943390,573.239441 510.963226,578.706787 
z"/>
<path fill="#3370A2" opacity="1.000000" stroke="none" 
	d="
M469.047180,634.282043 
	C471.397064,637.998474 473.728760,642.096313 476.103027,646.552246 
	C473.773407,642.828064 471.401184,638.745789 469.047180,634.282043 
z"/>
<path fill="#3370A2" opacity="1.000000" stroke="none" 
	d="
M476.082153,647.245728 
	C478.158783,650.572754 480.202667,654.290466 482.312256,658.364990 
	C480.268433,655.026672 478.158936,651.331543 476.082153,647.245728 
z"/>
<path fill="#1E5E96" opacity="1.000000" stroke="none" 
	d="
M490.843628,371.841064 
	C487.101379,371.026184 483.184021,369.893585 478.986694,368.521606 
	C482.694000,369.362610 486.681305,370.442963 490.843628,371.841064 
z"/>
<path fill="#3370A2" opacity="1.000000" stroke="none" 
	d="
M519.948364,594.726440 
	C518.521790,592.752625 517.122742,590.392944 515.640015,587.690430 
	C517.029541,589.678589 518.502686,592.009583 519.948364,594.726440 
z"/>
<path fill="#1E5E96" opacity="1.000000" stroke="none" 
	d="
M504.666321,378.087585 
	C501.960144,377.158203 499.150085,375.881134 496.105896,374.346100 
	C498.768646,375.305359 501.665527,376.522614 504.666321,378.087585 
z"/>
<path fill="#3370A2" opacity="1.000000" stroke="none" 
	d="
M501.929260,562.745117 
	C500.519684,560.753662 499.126709,558.383423 497.649902,555.668457 
	C499.026031,557.671265 500.485962,560.018799 501.929260,562.745117 
z"/>
<path fill="#3370A2" opacity="1.000000" stroke="none" 
	d="
M532.975464,617.700317 
	C531.652161,615.953308 530.343262,613.830750 528.988770,611.360352 
	C530.292053,613.116577 531.640991,615.220703 532.975464,617.700317 
z"/>
<path fill="#1E5E96" opacity="1.000000" stroke="none" 
	d="
M528.952515,398.736145 
	C527.628357,397.662689 526.308594,396.216919 524.879028,394.460083 
	C526.165100,395.553955 527.560974,396.958893 528.952515,398.736145 
z"/>
<path fill="#3370A2" opacity="1.000000" stroke="none" 
	d="
M496.949036,553.734924 
	C495.859253,552.416748 494.786804,550.726746 493.634613,548.705688 
	C494.692047,550.037476 495.829224,551.700317 496.949036,553.734924 
z"/>
<path fill="#3370A2" opacity="1.000000" stroke="none" 
	d="
M550.972412,649.710449 
	C549.893738,648.364258 548.832275,646.648438 547.703552,644.594604 
	C548.754089,645.951294 549.871887,647.646118 550.972412,649.710449 
z"/>
<path fill="#1E5E96" opacity="1.000000" stroke="none" 
	d="
M520.849365,389.836670 
	C519.546509,389.137360 518.216797,388.074005 516.706909,386.746887 
	C517.958618,387.479645 519.390564,388.476166 520.849365,389.836670 
z"/>
<path fill="#3370A2" opacity="1.000000" stroke="none" 
	d="
M513.904541,583.772461 
	C512.919189,582.662292 511.955963,581.183167 510.954407,579.366211 
	C511.919617,580.486694 512.923218,581.945068 513.904541,583.772461 
z"/>
<path fill="#1E5E96" opacity="1.000000" stroke="none" 
	d="
M533.863647,504.631836 
	C534.122803,503.556061 534.734558,502.383484 535.618408,501.023193 
	C535.332458,502.068695 534.774292,503.301880 533.863647,504.631836 
z"/>
<path fill="#1E5E96" opacity="1.000000" stroke="none" 
	d="
M537.842529,413.304749 
	C537.106262,412.465698 536.402039,411.217804 535.596069,409.621887 
	C536.287781,410.481232 537.081116,411.688599 537.842529,413.304749 
z"/>
<path fill="#1E5E96" opacity="1.000000" stroke="none" 
	d="
M495.757996,373.791656 
	C494.561768,373.671173 493.171997,373.216675 491.517609,372.501282 
	C492.690155,372.646149 494.127319,373.051910 495.757996,373.791656 
z"/>
<path fill="#1E5E96" opacity="1.000000" stroke="none" 
	d="
M509.667725,381.116760 
	C508.618195,380.830322 507.459259,380.200256 506.114075,379.298401 
	C507.137970,379.608734 508.348145,380.190918 509.667725,381.116760 
z"/>
<path fill="#3370A2" opacity="1.000000" stroke="none" 
	d="
M511.327332,529.007324 
	C511.775513,528.356995 512.564636,527.700195 513.662109,526.980713 
	C513.203003,527.612244 512.435669,528.306519 511.327332,529.007324 
z"/>
<path fill="#3370A2" opacity="1.000000" stroke="none" 
	d="
M466.357605,629.013062 
	C466.967560,629.555481 467.503204,630.449219 468.053589,631.660522 
	C467.473358,631.106873 466.878357,630.235535 466.357605,629.013062 
z"/>
<path fill="#1E5E96" opacity="1.000000" stroke="none" 
	d="
M533.876404,405.818726 
	C533.238831,405.341064 532.615173,404.511047 531.931519,403.368164 
	C532.544495,403.858978 533.217407,404.662659 533.876404,405.818726 
z"/>
<path fill="#1E5E96" opacity="1.000000" stroke="none" 
	d="
M530.665039,401.127716 
	C530.160706,400.839111 529.599426,400.231079 528.960938,399.318420 
	C529.458435,399.612000 530.033264,400.210114 530.665039,401.127716 
z"/>
<path fill="#1E5E96" opacity="1.000000" stroke="none" 
	d="
M514.838379,384.834839 
	C514.278625,384.698151 513.570740,384.274231 512.697205,383.579773 
	C513.251099,383.722046 513.970703,384.134796 514.838379,384.834839 
z"/>
<path fill="#1E5E96" opacity="1.000000" stroke="none" 
	d="
M534.921631,407.783813 
	C534.610168,407.615143 534.251648,407.145691 533.845642,406.375336 
	C534.156921,406.543976 534.515747,407.013489 534.921631,407.783813 
z"/>
<path fill="#3370A2" opacity="1.000000" stroke="none" 
	d="
M514.937988,585.779785 
	C514.603088,585.614990 514.250000,585.145996 513.868225,584.374390 
	C514.199585,584.539734 514.559631,585.007690 514.937988,585.779785 
z"/>
<path fill="#3370A2" opacity="1.000000" stroke="none" 
	d="
M448.325012,595.020020 
	C448.676422,595.169922 449.020569,595.635010 449.426453,596.394226 
	C449.098053,596.237244 448.707886,595.786255 448.325012,595.020020 
z"/>
<path fill="#3370A2" opacity="1.000000" stroke="none" 
	d="
M449.427429,596.961304 
	C449.774384,597.116821 450.085815,597.585022 450.456116,598.335266 
	C450.140656,598.169495 449.766266,597.721741 449.427429,596.961304 
z"/>
<path fill="#3370A2" opacity="1.000000" stroke="none" 
	d="
M450.482971,598.947632 
	C450.825714,599.106201 451.125244,599.574097 451.482727,600.321045 
	C451.173706,600.152405 450.806732,599.704712 450.482971,598.947632 
z"/>
<path fill="#1E5E96" opacity="1.000000" stroke="none" 
	d="
M516.561584,386.263123 
	C516.157837,386.240967 515.644043,385.921326 515.007446,385.323853 
	C515.406982,385.352539 515.929199,385.659088 516.561584,386.263123 
z"/>
<path fill="#3370A2" opacity="1.000000" stroke="none" 
	d="
M430.469666,560.948242 
	C430.813354,561.102600 431.117004,561.565796 431.481995,562.306274 
	C431.172119,562.141418 430.800903,561.699219 430.469666,560.948242 
z"/>
<path fill="#3370A2" opacity="1.000000" stroke="none" 
	d="
M429.188232,559.129517 
	C429.549683,559.230408 429.956299,559.633911 430.431061,560.329834 
	C430.077271,560.225525 429.655334,559.828857 429.188232,559.129517 
z"/>
<path fill="#3370A2" opacity="1.000000" stroke="none" 
	d="
M428.194885,557.125366 
	C428.500488,557.305603 428.830780,557.790955 429.186584,558.595520 
	C428.881256,558.419983 428.550415,557.925171 428.194885,557.125366 
z"/>
<path fill="#3370A2" opacity="1.000000" stroke="none" 
	d="
M468.055786,632.226562 
	C468.384918,632.405029 468.730347,632.886963 469.088074,633.675049 
	C468.757629,633.497498 468.414856,633.013794 468.055786,632.226562 
z"/>
<path fill="#1E5E96" opacity="1.000000" stroke="none" 
	d="
M512.632080,383.232361 
	C512.226624,383.229858 511.679474,382.938904 510.991516,382.371216 
	C511.397247,382.377625 511.943817,382.660736 512.632080,383.232361 
z"/>
<path fill="#1E5E96" opacity="1.000000" stroke="none" 
	d="
M531.874023,402.820953 
	C531.519836,402.691284 531.105408,402.249146 530.599487,401.504028 
	C530.943237,401.636841 531.378479,402.072662 531.874023,402.820953 
z"/>
<path fill="#3370A2" opacity="1.000000" stroke="none" 
	d="
M546.962280,642.749268 
	C546.625488,642.583191 546.268127,642.113647 545.887207,641.340637 
	C546.223022,641.506653 546.582397,641.976257 546.962280,642.749268 
z"/>
<path fill="#3370A2" opacity="1.000000" stroke="none" 
	d="
M514.214966,526.908142 
	C514.290039,526.545837 514.664307,526.131104 515.305298,525.606934 
	C515.219421,525.950256 514.866821,526.403015 514.214966,526.908142 
z"/>
<path fill="#1E5E96" opacity="1.000000" stroke="none" 
	d="
M536.060791,500.769043 
	C536.018555,500.382263 536.218323,499.800415 536.676147,499.041992 
	C536.723755,499.434967 536.513245,500.004425 536.060791,500.769043 
z"/>
<path fill="#1E5E96" opacity="1.000000" stroke="none" 
	d="
M529.795959,510.642700 
	C529.799133,510.238373 530.093140,509.695618 530.659668,509.005432 
	C530.650391,509.406738 530.368652,509.955505 529.795959,510.642700 
z"/>
<path fill="#3370A2" opacity="1.000000" stroke="none" 
	d="
M482.348511,659.007812 
	C482.692261,659.145630 483.027496,659.592224 483.440186,660.316711 
	C483.125092,660.168640 482.732574,659.742615 482.348511,659.007812 
z"/>
<path fill="#1E5E96" opacity="1.000000" stroke="none" 
	d="
M531.833252,507.669373 
	C531.826233,507.267944 532.099731,506.710663 532.644287,505.998779 
	C532.648132,506.400665 532.380920,506.957123 531.833252,507.669373 
z"/>
<path fill="#3370A2" opacity="1.000000" stroke="none" 
	d="
M547.657593,644.065430 
	C547.459961,644.066956 547.220093,643.807312 546.967957,643.271729 
	C547.175537,643.265320 547.395386,643.534729 547.657593,644.065430 
z"/>
<path fill="#1E5E96" opacity="1.000000" stroke="none" 
	d="
M524.771973,394.022278 
	C524.589966,394.057465 524.266663,393.845184 523.844360,393.352051 
	C524.040527,393.305695 524.335632,393.540253 524.771973,394.022278 
z"/>
<path fill="#3370A2" opacity="1.000000" stroke="none" 
	d="
M551.597656,651.102356 
	C551.399780,651.097656 551.170410,650.826782 550.930176,650.279297 
	C551.134949,650.280457 551.350525,650.558350 551.597656,651.102356 
z"/>
<path fill="#3370A2" opacity="1.000000" stroke="none" 
	d="
M533.616516,619.096680 
	C533.419189,619.093689 533.186279,618.824768 532.939453,618.278809 
	C533.143982,618.278076 533.362427,618.554382 533.616516,619.096680 
z"/>
<path fill="#1E5E96" opacity="1.000000" stroke="none" 
	d="
M523.785950,393.008636 
	C523.606934,393.041626 523.288147,392.829346 522.872925,392.337128 
	C523.066345,392.292603 523.356323,392.527985 523.785950,393.008636 
z"/>
<path fill="#1E5E96" opacity="1.000000" stroke="none" 
	d="
M535.630981,409.171204 
	C535.450745,409.156555 535.211182,408.867615 534.947876,408.288361 
	C535.140015,408.297668 535.355835,408.597290 535.630981,409.171204 
z"/>
<path fill="#3370A2" opacity="1.000000" stroke="none" 
	d="
M451.523071,600.848267 
	C451.719391,600.862854 451.919952,601.141174 452.124878,601.683960 
	C451.928619,601.669678 451.727966,601.390808 451.523071,600.848267 
z"/>
<path fill="#1E5E96" opacity="1.000000" stroke="none" 
	d="
M521.793762,390.985962 
	C521.616272,391.023071 521.293823,390.820801 520.870239,390.342896 
	C521.062378,390.293671 521.355591,390.520111 521.793762,390.985962 
z"/>
<path fill="#3370A2" opacity="1.000000" stroke="none" 
	d="
M515.573486,587.115173 
	C515.376709,587.106140 515.156494,586.830261 514.927063,586.279907 
	C515.128601,586.286377 515.339233,586.567322 515.573486,587.115173 
z"/>
<path fill="#3370A2" opacity="1.000000" stroke="none" 
	d="
M497.593079,555.113525 
	C497.395325,555.111877 497.160187,554.842712 496.907196,554.295410 
	C497.111450,554.293518 497.333557,554.569763 497.593079,555.113525 
z"/>
<path fill="#1E5E96" opacity="1.000000" stroke="none" 
	d="
M522.796814,391.984131 
	C522.620056,392.020142 522.298279,391.816345 521.874634,391.337280 
	C522.065735,391.289429 522.358826,391.516876 522.796814,391.984131 
z"/>
<path fill="#1E5E96" opacity="1.000000" stroke="none" 
	d="
M505.809143,378.869080 
	C505.638916,378.958282 505.273376,378.851227 504.752136,378.496765 
	C504.935547,378.390533 505.274689,378.531677 505.809143,378.869080 
z"/>
<path fill="#3370A2" opacity="1.000000" stroke="none" 
	d="
M493.542603,548.120483 
	C493.348083,548.115051 493.125122,547.845581 492.887146,547.304382 
	C493.086121,547.307251 493.300140,547.581848 493.542603,548.120483 
z"/>
<path fill="#1E5E96" opacity="1.000000" stroke="none" 
	d="
M510.772156,381.950623 
	C510.591553,382.031219 510.227051,381.895081 509.717560,381.498047 
	C509.911133,381.402740 510.249695,381.568329 510.772156,381.950623 
z"/>
<path fill="#1A5C95" opacity="1.000000" stroke="none" 
	d="
M567.562134,490.834656 
	C567.194092,490.962402 566.978760,490.968140 566.441589,490.976501 
	C566.463562,490.791229 566.807312,490.603333 567.441589,490.368805 
	C567.732056,490.322205 567.714783,490.712677 567.562134,490.834656 
z"/>
<path fill="#1E5E96" opacity="1.000000" stroke="none" 
	d="
M528.049194,512.800903 
	C527.988464,512.618713 528.155029,512.270569 528.594421,511.803894 
	C528.670288,512.001892 528.473389,512.318420 528.049194,512.800903 
z"/>
<path fill="#1E5E96" opacity="1.000000" stroke="none" 
	d="
M528.918457,511.730652 
	C528.850891,511.539734 529.025818,511.179413 529.476440,510.684204 
	C529.555054,510.886597 529.358032,511.223938 528.918457,511.730652 
z"/>
<path fill="#1E5E96" opacity="1.000000" stroke="none" 
	d="
M531.067627,508.807343 
	C530.987061,508.629944 531.117493,508.261688 531.508423,507.745728 
	C531.605469,507.937531 531.442017,508.277008 531.067627,508.807343 
z"/>
<path fill="#1E5E96" opacity="1.000000" stroke="none" 
	d="
M533.047363,505.790039 
	C532.961975,505.613892 533.086060,505.242432 533.465576,504.713074 
	C533.566345,504.901703 533.411621,505.248169 533.047363,505.790039 
z"/>
<path fill="#0D66B5" opacity="1.000000" stroke="none" 
	d="
M388.256409,451.999847 
	C388.257111,441.033112 388.257111,430.566406 388.257111,420.035614 
	C389.234711,419.746521 389.851349,419.401947 390.465637,419.406097 
	C408.955078,419.532196 427.484955,418.973602 445.924133,420.015045 
	C474.110718,421.607086 489.349304,449.935181 475.922668,474.916351 
	C469.899811,486.122223 459.650116,491.979126 447.443634,492.591431 
	C428.165039,493.558441 408.818359,493.168854 389.500275,493.330597 
	C389.212952,493.332977 388.923157,493.040588 388.255707,492.682526 
	C388.255707,479.422455 388.255707,465.961151 388.256409,451.999847 
z"/>
</svg>