<svg width="2101" height="2101" viewBox="0 0 2101 2101" fill="none" xmlns="http://www.w3.org/2000/svg">
<path fill-rule="evenodd" clip-rule="evenodd" d="M1264.36 2052.72C1478.42 2052.72 1676.8 1985.55 1839.56 1871.14H1267.03V1871.13C1266.14 1871.14 1265.25 1871.14 1264.36 1871.14C1169.63 1871.14 1078.65 1855.07 994 1825.51V277.208C1078.65 247.648 1169.63 231.58 1264.36 231.58C1265.25 231.58 1266.14 231.581 1267.03 231.584V231.58H1839.56C1676.8 117.169 1478.42 50 1264.36 50C711.324 50 263 498.324 263 1051.36C263 1604.39 711.324 2052.72 1264.36 2052.72ZM882 326.024C621.865 463.438 444.58 736.695 444.58 1051.36C444.58 1366.02 621.865 1639.28 882 1776.69V326.024Z" fill="#DF605C"/>
</svg>
